<svg width="32" height="32" viewBox="0 0 32 32" fill="none" xmlns="http://www.w3.org/2000/svg">
<rect width="32" height="32" rx="16" fill="#0056FD"/>
<path d="M16.2748 12.8113C16.2426 12.769 16.201 12.7348 16.1534 12.7112C16.1057 12.6876 16.0533 12.6753 16.0001 12.6753C15.9469 12.6753 15.8945 12.6876 15.8469 12.7112C15.7992 12.7348 15.7577 12.769 15.7254 12.8113L12.0588 18.1447C12.0244 18.1947 12.0044 18.2532 12.0008 18.3138C11.9973 18.3744 12.0103 18.4348 12.0386 18.4886C12.0669 18.5423 12.1093 18.5873 12.1612 18.6186C12.2132 18.65 12.2727 18.6666 12.3334 18.6667H19.6668C19.7275 18.6666 19.787 18.65 19.839 18.6186C19.891 18.5873 19.9334 18.5423 19.9616 18.4886C19.9899 18.4348 20.003 18.3744 19.9994 18.3138C19.9958 18.2532 19.9758 18.1947 19.9414 18.1447L16.2748 12.8113Z" fill="white"/>
</svg>
